<svg width="117" height="34" viewBox="0 0 117 34" fill="none" xmlns="http://www.w3.org/2000/svg">
<path d="M22.5464 12.8909C21.9735 11.0579 21.1683 9.07468 20.2237 7.31684C19.5113 5.97967 18.4119 4.17676 17.0027 2.68935C15.5936 1.21697 13.8128 0 11.7378 0C9.66276 0 7.86648 1.21697 6.47281 2.68935C5.06366 4.17676 3.96421 5.97967 3.25189 7.31684C2.30729 9.0897 1.50206 11.0579 0.929111 12.8909C0.356159 14.7238 0 16.4516 0 17.7287C0 22.3862 4.80041 26.0371 10.6383 26.4428V32.9633C10.6383 33.5343 11.1184 34 11.7068 34C12.2952 34 12.7753 33.5343 12.7753 32.9633V26.4428C18.6442 26.0521 23.4601 22.3862 23.4601 17.7287C23.4601 16.4516 23.1039 14.7088 22.531 12.8909H22.5464ZM12.7753 24.3694V19.3213L13.1314 19.1259L14.5251 18.3447C14.5716 18.3297 14.5871 18.2846 14.618 18.2696L15.9497 17.5033C16.4608 17.2179 16.6311 16.5868 16.3369 16.091C16.0427 15.5952 15.3923 15.43 14.8813 15.7154L12.7753 16.9324V16.2413V13.2665C12.7753 12.6955 12.2952 12.2298 11.7068 12.2298C11.1184 12.2298 10.6383 12.6955 10.6383 13.2665V19.2461L8.12973 17.8489C7.86648 17.6986 7.58774 17.6836 7.3245 17.7437C7.06125 17.8188 6.82897 17.9841 6.67412 18.2245C6.3799 18.7203 6.55024 19.3513 7.06125 19.6368L10.6383 21.635V24.3694C8.30006 24.1891 6.22505 23.4079 4.7075 22.266C3.08155 21.0491 2.13696 19.4415 2.13696 17.7287C2.13696 16.8422 2.38472 15.4149 2.89573 13.7022C3.40674 12.0044 4.15003 10.0963 5.14108 8.24834C5.77598 7.06142 6.72057 5.48387 7.88196 4.22183C9.05884 2.94476 10.3751 2.05833 11.7223 2.05833C13.0695 2.05833 14.3857 2.94476 15.5626 4.22183C16.724 5.48387 17.6686 7.06142 18.3035 8.24834C19.2791 10.0963 20.0378 12.0194 20.5488 13.7022C21.0599 15.3999 21.3076 16.8422 21.3076 17.7287C21.3076 19.4565 20.3475 21.0641 18.7216 22.281C17.5757 23.1374 16.1201 23.7835 14.4787 24.129C13.9212 24.2492 13.3637 24.3244 12.7753 24.3694Z" fill="url(#paint0_linear_134_225)"/>
<path d="M113.178 8.87573H117V25.0911H113.178V8.87573Z" fill="#27A755"/>
<path d="M107.564 24.9592V23.9375C106.854 24.6626 105.704 25.124 104.419 25.124C101.206 25.124 98.6012 23.2124 98.7365 19.0268C98.8718 14.8081 101.578 12.8306 104.588 12.9625C105.873 13.0284 106.922 13.5887 107.564 14.2808V13.2261H111.352V24.9922H107.564V24.9592ZM104.892 21.8282C106.177 21.8282 107.192 21.2349 107.429 19.9166C107.429 19.8177 107.463 19.4222 107.463 19.3234C107.463 17.3129 106.347 16.1924 104.96 16.1924C103.776 16.1264 102.525 17.0493 102.525 18.9608C102.525 20.8724 103.539 21.7952 104.892 21.7952V21.8282Z" fill="#27A755"/>
<path d="M85.6465 9.20532H91.8698C96.3344 9.20532 98.7357 11.2487 98.7357 14.8082C98.7357 17.7085 96.3682 20.2792 92.3095 20.2792H89.5361V25.1241H85.6465V9.23828V9.20532ZM89.5361 16.8516H92.4786C94.1359 16.8516 94.9476 15.764 94.9476 14.7093C94.9476 13.5558 94.1021 12.633 92.5124 12.633H89.5361V16.8516Z" fill="#27A755"/>
<path d="M76.6167 25.124C73.4374 25.124 70.8669 23.2784 70.9007 19.1257C70.9684 15.1048 73.3359 12.7977 76.5491 12.9625C77.9696 12.9955 79.1534 13.5558 79.8636 14.2809V9.07349H83.6518V24.9593H79.8636V23.9046C79.1196 24.6626 77.9358 25.124 76.6167 25.124ZM77.3946 21.8282C78.849 21.7294 79.7284 20.6418 79.7284 19.3234C79.7284 17.4448 78.6122 16.2254 77.0902 16.2254C75.9403 16.2254 74.655 17.0493 74.655 19.0268C74.655 21.202 76.0079 21.9271 77.3946 21.8612V21.8282Z" fill="#27A755"/>
<path d="M66.4697 8.87573H70.2917V25.0911H66.4697V8.87573Z" fill="#27A755"/>
<path d="M60.8555 13.3251H64.6436V25.1241H60.8555V13.3251ZM64.6774 12.0727H60.8893V9.20532H64.6774V12.0727Z" fill="#27A755"/>
<path d="M59.0965 13.0613V24.8273H55.2408V24.1352C54.6996 24.5966 53.7187 25.0251 52.6703 25.091H52.3997C49.4571 25.091 48.1719 23.2783 48.1719 20.4439V13.0283H52.0276V18.8289C52.0276 21.0042 52.6702 21.4985 53.5496 21.4656C54.3275 21.4656 54.8011 21.2349 55.2746 20.7405V13.0283H59.1303L59.0965 13.0613Z" fill="#27A755"/>
<path d="M42.5233 21.1362C43.0644 20.7736 43.4365 19.8838 43.4365 19.0269H40.1895V15.8629H47.4275V17.379C47.3261 19.2576 47.3261 20.7736 46.3452 22.2567C45.3305 23.9376 43.7747 24.6956 42.2865 24.9923C40.6631 25.2889 38.2955 25.0911 36.8411 24.2672C34.5074 22.85 33.3574 20.477 33.3574 17.0164C33.3574 13.5558 34.7103 11.2158 37.0102 9.79861C38.4308 8.97465 40.6631 8.74395 42.2865 9.07353C43.6732 9.3372 44.9585 10.0952 46.4467 11.6443L44.1468 13.9843C42.7262 12.4682 41.238 12.0727 39.7837 12.5671C38.0249 13.1274 37.0779 14.6764 37.0779 17.0494C37.0779 19.4224 38.1264 21.1691 39.6484 21.5976C40.5278 21.8283 41.7454 21.7624 42.5571 21.1691L42.5233 21.1362Z" fill="#27A755"/>
<defs>
<linearGradient id="paint0_linear_134_225" x1="13.2155" y1="37.9107" x2="13.2155" y2="-2.79072" gradientUnits="userSpaceOnUse">
<stop stop-color="#00752A"/>
<stop offset="0.45" stop-color="#00C346"/>
<stop offset="0.9" stop-color="#ABE85D"/>
</linearGradient>
</defs>
</svg>
