<svg width="57" height="56" viewBox="0 0 57 56" fill="none" xmlns="http://www.w3.org/2000/svg">
<g id="icon-&#8;discord" clip-path="url(#clip0_83_1106)">
<path id="Vector" d="M43.8552 0H13.1448C6.16129 0 0.5 5.68751 0.5 12.7034V43.2966C0.5 50.3125 6.16129 56 13.1448 56H43.8552C50.8387 56 56.5 50.3125 56.5 43.2966V12.7034C56.5 5.68751 50.8387 0 43.8552 0Z" fill="white"/>
<path id="Vector_2" d="M33.8056 14.7005L33.3694 15.2083C38.6658 16.8568 41.1265 19.2288 41.1265 19.2288C37.8887 17.4272 34.7054 16.5369 31.747 16.1891C29.5044 15.9386 27.3504 16.0012 25.4554 16.2517C25.2714 16.2517 25.1146 16.2864 24.9237 16.3143C23.8331 16.4117 21.1815 16.8221 17.8482 18.3106C16.6962 18.8462 16.0078 19.2288 16.0078 19.2288C16.0078 19.2288 18.5912 16.7316 24.2012 15.0831L23.8944 14.7005C23.8944 14.7005 19.6273 14.6031 15.1353 18.0254C15.1353 18.0254 10.65 26.2892 10.65 36.4797C10.65 36.4797 13.2676 41.0706 20.1522 41.2932C20.1522 41.2932 21.3042 39.8673 22.238 38.6639C18.2777 37.4605 16.7849 34.9285 16.7849 34.9285C16.7849 34.9285 17.0984 35.1511 17.6574 35.4641C17.6914 35.4989 17.7187 35.5267 17.7801 35.5615C17.8755 35.6241 17.9641 35.6589 18.0595 35.7215C18.8366 36.1667 19.6205 36.5145 20.3362 36.7997C21.6109 37.3075 23.1378 37.8152 24.9169 38.163C27.255 38.6082 29.9952 38.7613 32.9876 38.1978C34.4532 37.9474 35.946 37.5022 37.507 36.8344C38.5976 36.424 39.8109 35.8189 41.0924 34.9702C41.0924 34.9702 39.5314 37.5648 35.4552 38.7334C36.389 39.9368 37.5138 41.3002 37.5138 41.3002C44.3984 41.0776 47.05 36.4866 47.05 36.4866C47.05 26.2961 42.5648 18.0324 42.5648 18.0324C38.0727 14.6031 33.8056 14.7005 33.8056 14.7005ZM23.0219 33.5304C21.2769 33.5304 19.8455 31.9444 19.8455 30.0176C19.8455 28.0908 21.2496 26.5048 23.0219 26.5048C24.7942 26.5048 26.2325 28.0908 26.1984 30.0176C26.1984 31.9513 24.7942 33.5304 23.0219 33.5304ZM34.3918 33.5304C32.6468 33.5304 31.2153 31.9444 31.2153 30.0176C31.2153 28.0908 32.6195 26.5048 34.3918 26.5048C36.1641 26.5048 37.5683 28.0908 37.5683 30.0176C37.5683 31.9444 36.1641 33.5304 34.3918 33.5304Z" fill="black"/>
</g>
<defs>
<clipPath id="clip0_83_1106">
<rect width="56" height="56" fill="white" transform="translate(0.5)"/>
</clipPath>
</defs>
</svg>
