<svg width="57" height="56" viewBox="0 0 57 56" fill="none" xmlns="http://www.w3.org/2000/svg">
<g id="icon-twitter" clip-path="url(#clip0_83_1103)">
<path id="Vector" d="M43.8552 0H13.1448C6.16129 0 0.5 5.68751 0.5 12.7034V43.2966C0.5 50.3125 6.16129 56 13.1448 56H43.8552C50.8387 56 56.5 50.3125 56.5 43.2966V12.7034C56.5 5.68751 50.8387 0 43.8552 0Z" fill="white"/>
<path id="Vector_2" d="M35.909 16.3008H39.8597L31.2289 26.2121L41.3822 39.6978H33.4317L27.205 31.5194L20.0792 39.6978H16.1264L25.3576 29.0976L15.6178 16.3008H23.7695L29.398 23.7771L35.909 16.3008ZM34.5222 37.3222H36.7119L22.5806 18.5523H20.2312L34.5222 37.3222Z" fill="black"/>
</g>
<defs>
<clipPath id="clip0_83_1103">
<rect width="56" height="56" fill="white" transform="translate(0.5)"/>
</clipPath>
</defs>
</svg>
