<svg width="24" height="25" viewBox="0 0 24 25" fill="none" xmlns="http://www.w3.org/2000/svg">
<path fill-rule="evenodd" clip-rule="evenodd" d="M6.55806 7.05806C6.80214 6.81398 7.19786 6.81398 7.44194 7.05806L12 11.6161L16.5581 7.05806C16.8021 6.81398 17.1979 6.81398 17.4419 7.05806C17.686 7.30214 17.686 7.69786 17.4419 7.94194L12.8839 12.5L17.4419 17.0581C17.686 17.3021 17.686 17.6979 17.4419 17.9419C17.1979 18.186 16.8021 18.186 16.5581 17.9419L12 13.3839L7.44194 17.9419C7.19786 18.186 6.80214 18.186 6.55806 17.9419C6.31398 17.6979 6.31398 17.3021 6.55806 17.0581L11.1161 12.5L6.55806 7.94194C6.31398 7.69786 6.31398 7.30214 6.55806 7.05806Z" fill="#E8EAF1"/>
</svg>
