<svg width="24" height="24" viewBox="0 0 24 24" fill="none" xmlns="http://www.w3.org/2000/svg">
<path d="M3 4.25C2.0335 4.25 1.25 5.0335 1.25 6C1.25 6.9665 2.0335 7.75 3 7.75H21C21.9665 7.75 22.75 6.9665 22.75 6C22.75 5.0335 21.9665 4.25 21 4.25H3ZM3 10.25C2.0335 10.25 1.25 11.0335 1.25 12C1.25 12.9665 2.0335 13.75 3 13.75H21C21.9665 13.75 22.75 12.9665 22.75 12C22.75 11.0335 21.9665 10.25 21 10.25H3ZM9 16.25C8.0335 16.25 7.25 17.0335 7.25 18C7.25 18.9665 8.0335 19.75 9 19.75H21C21.9665 19.75 22.75 18.9665 22.75 18C22.75 17.0335 21.9665 16.25 21 16.25H9Z" fill="white" stroke="black" stroke-width="2" stroke-linecap="round" stroke-linejoin="round"/>
</svg>
