<svg width="32" height="32" viewBox="0 0 32 32" fill="none" xmlns="http://www.w3.org/2000/svg">
<g clip-path="url(#clip0_268_1311)">
<circle cx="16" cy="16" r="15.5" stroke="white"/>
<path fill-rule="evenodd" clip-rule="evenodd" d="M9.46967 9.46967C9.76256 9.17678 10.2374 9.17678 10.5303 9.46967L16 14.9393L21.4697 9.46967C21.7626 9.17678 22.2374 9.17678 22.5303 9.46967C22.8232 9.76256 22.8232 10.2374 22.5303 10.5303L17.0607 16L22.5303 21.4697C22.8232 21.7626 22.8232 22.2374 22.5303 22.5303C22.2374 22.8232 21.7626 22.8232 21.4697 22.5303L16 17.0607L10.5303 22.5303C10.2374 22.8232 9.76256 22.8232 9.46967 22.5303C9.17678 22.2374 9.17678 21.7626 9.46967 21.4697L14.9393 16L9.46967 10.5303C9.17678 10.2374 9.17678 9.76256 9.46967 9.46967Z" fill="white"/>
</g>
<defs>
<clipPath id="clip0_268_1311">
<rect width="32" height="32" fill="white"/>
</clipPath>
</defs>
</svg>
