<svg width="144" height="168" viewBox="0 0 144 168" fill="none" xmlns="http://www.w3.org/2000/svg">
<g id="logo">
<g id="Group 9">
<path id="Vector" d="M137.42 139.752H144V167.943H137.42V139.752Z" fill="#27A755"/>
<path id="Vector_2" d="M127.754 167.714V165.938C126.531 167.198 124.552 168 122.339 168C116.807 168 112.324 164.677 112.556 157.4C112.789 150.066 117.448 146.628 122.63 146.857C124.843 146.972 126.648 147.946 127.754 149.149V147.316H134.276V167.771H127.754V167.714ZM123.154 162.27C125.367 162.27 127.114 161.239 127.521 158.947C127.521 158.775 127.58 158.088 127.58 157.916C127.58 154.421 125.658 152.473 123.271 152.473C121.233 152.358 119.078 153.962 119.078 157.286C119.078 160.609 120.825 162.213 123.154 162.213V162.27Z" fill="#27A755"/>
<path id="Vector_3" d="M90.0217 140.325H100.736C108.422 140.325 112.556 143.878 112.556 150.066C112.556 155.108 108.48 159.577 101.493 159.577H96.7181V168H90.0217V140.382V140.325ZM96.7181 153.618H101.784C104.637 153.618 106.035 151.727 106.035 149.894C106.035 147.888 104.579 146.284 101.842 146.284H96.7181V153.618Z" fill="#27A755"/>
<path id="Vector_4" d="M74.4747 168C69.0012 168 64.5758 164.792 64.6341 157.572C64.7505 150.582 68.8265 146.571 74.3583 146.857C76.8039 146.915 78.8419 147.889 80.0647 149.149V140.096H86.5863V167.714H80.0647V165.88C78.7837 167.198 76.7457 168 74.4747 168ZM75.814 162.27C78.3178 162.099 79.8318 160.208 79.8318 157.916C79.8318 154.65 77.9102 152.53 75.2899 152.53C73.3102 152.53 71.0975 153.962 71.0975 157.4C71.0975 161.182 73.4266 162.442 75.814 162.328V162.27Z" fill="#27A755"/>
<path id="Vector_5" d="M57.006 139.752H63.5858V167.943H57.006V139.752Z" fill="#27A755"/>
<path id="Vector_6" d="M47.3401 147.487H53.8618V168H47.3401V147.487ZM53.92 145.31H47.3984V140.325H53.92V145.31Z" fill="#27A755"/>
<path id="Vector_7" d="M44.3122 147.029V167.485H37.6741V166.282C36.7424 167.084 35.0538 167.829 33.2487 167.943H32.7829C27.717 167.943 25.5043 164.792 25.5043 159.864V146.972H32.1424V157.057C32.1424 160.838 33.2487 161.698 34.7627 161.64C36.1019 161.64 36.9171 161.239 37.7323 160.38V146.972H44.3704L44.3122 147.029Z" fill="#27A755"/>
<path id="Vector_8" d="M15.78 161.067C16.7117 160.437 17.3522 158.89 17.3522 157.4H11.7622V151.899H24.2232V154.535C24.0485 157.801 24.0485 160.437 22.3599 163.015C20.613 165.937 17.9345 167.255 15.3724 167.771C12.5774 168.287 8.50142 167.943 5.99757 166.51C1.97978 164.047 0 159.921 0 153.905C0 147.889 2.32916 143.82 6.28872 141.357C8.73433 139.924 12.5774 139.523 15.3724 140.096C17.7598 140.554 19.9725 141.872 22.5346 144.565L18.575 148.633C16.1294 145.998 13.5673 145.31 11.0635 146.17C8.03558 147.144 6.40518 149.837 6.40518 153.962C6.40518 158.088 8.21027 161.124 10.8306 161.869C12.3445 162.27 14.4408 162.156 15.8383 161.124L15.78 161.067Z" fill="#27A755"/>
</g>
<path id="Vector_9" d="M111.441 47.3492C109.357 40.6166 106.428 33.3321 102.992 26.8754C100.401 21.9639 96.4021 15.3416 91.2765 9.87822C86.1509 4.47003 79.6734 0 72.1258 0C64.5782 0 58.0444 4.47003 52.9751 9.87822C47.8495 15.3416 43.8503 21.9639 41.2593 26.8754C37.8235 33.3873 34.8946 40.6166 32.8105 47.3492C30.7265 54.0819 29.431 60.4282 29.431 65.119C29.431 82.2265 46.8919 95.6366 68.1267 97.1266V121.077C68.1267 123.174 69.8728 124.885 72.0131 124.885C74.1535 124.885 75.8996 123.174 75.8996 121.077V97.1266C97.247 95.6918 114.764 82.2265 114.764 65.119C114.764 60.4282 113.469 54.0267 111.385 47.3492H111.441ZM75.8996 89.511V70.9687L77.1951 70.2512L82.2644 67.3816C82.4334 67.3264 82.4897 67.1608 82.6024 67.1057L87.4464 64.2912C89.3051 63.2427 89.9247 60.9249 88.8545 59.1038C87.7843 57.2826 85.4186 56.6756 83.5599 57.7241L75.8996 62.1941V59.6556V48.7289C75.8996 46.6318 74.1535 44.9211 72.0131 44.9211C69.8728 44.9211 68.1267 46.6318 68.1267 48.7289V70.6927L59.0019 65.5605C58.0444 65.0086 57.0305 64.9534 56.073 65.1742C55.1155 65.4501 54.2706 66.0571 53.7073 66.9401C52.6371 68.7612 53.2567 71.079 55.1155 72.1275L68.1267 79.4672V89.511C59.6215 88.8488 52.0739 85.9791 46.554 81.785C40.6398 77.315 37.2039 71.4101 37.2039 65.119C37.2039 61.863 38.1051 56.6204 39.9639 50.3292C41.8226 44.0933 44.5262 37.0847 48.1311 30.2969C50.4404 25.9372 53.8763 20.1427 58.1007 15.5071C62.3815 10.8164 67.1691 7.56042 72.0695 7.56042C76.9698 7.56042 81.7575 10.8164 86.0382 15.5071C90.2626 20.1427 93.6985 25.9372 96.0079 30.2969C99.5564 37.0847 102.316 44.1485 104.175 50.3292C106.034 56.5652 106.935 61.863 106.935 65.119C106.935 71.4653 103.443 77.3702 97.5286 81.8402C93.3605 84.9858 88.0659 87.3588 82.0954 88.628C80.0677 89.0695 78.04 89.3454 75.8996 89.511Z" fill="url(#paint0_linear_83_1054)"/>
</g>
<defs>
<linearGradient id="paint0_linear_83_1054" x1="77.5007" y1="139.249" x2="77.5007" y2="-10.2506" gradientUnits="userSpaceOnUse">
<stop stop-color="#00752A"/>
<stop offset="0.45" stop-color="#00C346"/>
<stop offset="0.9" stop-color="#ABE85D"/>
</linearGradient>
</defs>
</svg>
