<svg width="36" height="36" viewBox="0 0 36 36" fill="none" xmlns="http://www.w3.org/2000/svg">
<g clip-path="url(#clip0_869_1363)">
<path fill-rule="evenodd" clip-rule="evenodd" d="M18.038 3C21.7291 3.01519 25.2608 4.36709 27.9949 6.82025C31.1772 9.66835 33 13.7392 33 18.0076C33 22.2759 31.1772 26.3468 27.9949 29.1949C25.2456 31.6557 21.6911 33.0152 18 33.0152C17.757 33.0152 17.5215 33.0152 17.2861 33C9.27342 32.6127 3 26.0354 3 18.0076C3 9.97975 9.72911 3 18 3H18.038ZM17.3468 31.5722C10.1013 31.2304 4.42025 25.2684 4.42025 18.0076C4.42025 10.7468 10.5114 4.42025 18.0152 4.42025H18.0532C19.238 4.42025 20.4152 4.58734 21.5392 4.89114C18.1367 4.97468 14.9468 6.64557 12.7595 9.49367C11.0278 11.5443 9.98734 14.5139 9.91899 17.6734V18.3646C9.98734 21.4937 11.0203 24.4633 12.7519 26.5139C14.962 29.3772 18.1519 31.0481 21.5468 31.124C20.1949 31.4886 18.7671 31.6405 17.362 31.5797L17.3468 31.5722ZM27.0835 28.0937C25.4886 29.1418 23.6582 29.6962 21.7899 29.6962C18.7367 29.6962 15.843 28.2152 13.8532 25.6253L13.8304 25.6025C12.3038 23.7949 11.3924 21.1443 11.324 18.3418V17.681C11.3848 14.8633 12.2962 12.2127 13.8456 10.3823C15.8354 7.79241 18.7291 6.31139 21.7823 6.31139C23.643 6.31139 25.4734 6.86582 27.0759 7.91392C29.9316 10.4886 31.5646 14.1646 31.5646 18C31.5646 21.8354 29.9241 25.519 27.0759 28.0861L27.0835 28.0937Z" fill="#FA1E4E"/>
<path d="M20.7494 8.552C23.4228 10.2685 25.2684 13.8685 25.2684 18.0229C25.2684 22.1773 23.4228 25.7773 20.7494 27.4938C24.1671 27.2128 26.8785 23.0811 26.8785 18.0229C26.8785 12.9647 24.1671 8.83301 20.7494 8.552Z" fill="#FA1E4E"/>
</g>
<defs>
<clipPath id="clip0_869_1363">
<rect width="30" height="30.0076" fill="white" transform="translate(3 3)"/>
</clipPath>
</defs>
</svg>
