<svg width="36" height="36" viewBox="0 0 36 36" fill="none" xmlns="http://www.w3.org/2000/svg">
<g clip-path="url(#clip0_869_1359)">
<path d="M33 17.9962C33 22.4389 31.0628 26.4255 28.0038 29.1929C24.1593 31.0553 20.5767 29.7538 19.3875 28.9311C23.1571 28.1084 26.0292 23.5235 26.0292 17.9962C26.0292 12.4689 23.1571 7.88397 19.3875 7.06124C20.5842 6.2385 24.1668 4.93708 28.0038 6.79946C31.0628 9.55937 33 13.5534 33 17.9962Z" fill="#FF1B2D"/>
<path d="M13.0748 9.52954C11.4293 11.4667 10.3523 14.3837 10.2775 17.6298V18.3403C10.3523 21.5864 11.4368 24.4959 13.0748 26.4405C15.2364 29.2378 18.4076 30.9955 21.9903 30.9955C24.1892 30.9955 26.2461 30.3224 27.9963 29.1705C25.3485 31.5565 21.8407 32.9776 17.9963 32.9776H17.2857C9.34256 32.626 3 26.0591 3 17.9963C3 9.93343 9.71653 3 17.9963 3H18.0711C21.8781 3 25.3485 4.45849 27.9963 6.80703C26.2461 5.64772 24.1892 4.98205 21.9903 4.98205C18.4076 4.98205 15.199 6.76963 13.0748 9.53702V9.52954Z" fill="#FF1B2D"/>
</g>
<defs>
<clipPath id="clip0_869_1359">
<rect width="30" height="29.9626" fill="white" transform="translate(3 3)"/>
</clipPath>
</defs>
</svg>
