<svg width="52" height="52" viewBox="0 0 52 52" fill="none" xmlns="http://www.w3.org/2000/svg">
<g id="symbol-circle-bg-wh">
<rect x="1.75" y="1.90027" width="48.5" height="48.5" rx="24.25" fill="white"/>
<rect x="1.75" y="1.90027" width="48.5" height="48.5" rx="24.25" stroke="black" stroke-width="2.5"/>
<path id="symbol" d="M37.6643 23.1402C37.0464 21.1563 36.178 19.0097 35.1594 17.1071C34.3912 15.6599 33.2055 13.7085 31.6858 12.0986C30.1662 10.5049 28.2457 9.18774 26.008 9.18774C23.7702 9.18774 21.833 10.5049 20.3301 12.0986C18.8104 13.7085 17.6247 15.6599 16.8565 17.1071C15.8379 19.026 14.9695 21.1563 14.3516 23.1402C13.7337 25.1241 13.3496 26.9942 13.3496 28.3764C13.3496 33.4175 18.5265 37.3691 24.8223 37.8082V44.8657C24.8223 45.4836 25.34 45.9877 25.9746 45.9877C26.6091 45.9877 27.1268 45.4836 27.1268 44.8657V37.8082C33.456 37.3854 38.6496 33.4175 38.6496 28.3764C38.6496 26.9942 38.2655 25.1078 37.6476 23.1402H37.6643ZM27.1268 35.5641V30.1002L27.5109 29.8888L29.0139 29.0432C29.064 29.0269 29.0807 28.9781 29.1141 28.9618L30.5503 28.1325C31.1014 27.8235 31.285 27.1405 30.9678 26.6039C30.6505 26.0673 29.9491 25.8884 29.398 26.1974L27.1268 27.5146V26.7665V23.5467C27.1268 22.9288 26.6091 22.4247 25.9746 22.4247C25.34 22.4247 24.8223 22.9288 24.8223 23.5467V30.0188L22.1169 28.5065C21.833 28.3439 21.5324 28.3276 21.2486 28.3927C20.9647 28.474 20.7142 28.6529 20.5472 28.9131C20.2299 29.4497 20.4136 30.1327 20.9647 30.4417L24.8223 32.6044V35.5641C22.3006 35.3689 20.0629 34.5233 18.4263 33.2874C16.6728 31.9702 15.6542 30.2303 15.6542 28.3764C15.6542 27.417 15.9214 25.8721 16.4724 24.0183C17.0235 22.1808 17.8251 20.1155 18.8939 18.1154C19.5786 16.8307 20.5973 15.1232 21.8497 13.7573C23.1189 12.375 24.5384 11.4156 25.9913 11.4156C27.4441 11.4156 28.8636 12.375 30.1328 13.7573C31.3852 15.1232 32.4039 16.8307 33.0886 18.1154C34.1407 20.1155 34.959 22.197 35.5101 24.0183C36.0612 25.8559 36.3283 27.417 36.3283 28.3764C36.3283 30.2465 35.293 31.9865 33.5395 33.3037C32.3037 34.2306 30.734 34.9299 28.9638 35.3039C28.3626 35.434 27.7614 35.5153 27.1268 35.5641Z" fill="url(#paint0_linear_134_263)"/>
</g>
<defs>
<linearGradient id="paint0_linear_134_263" x1="27.6015" y1="50.2205" x2="27.6015" y2="6.1672" gradientUnits="userSpaceOnUse">
<stop stop-color="#00752A"/>
<stop offset="0.45" stop-color="#00C346"/>
<stop offset="0.9" stop-color="#ABE85D"/>
</linearGradient>
</defs>
</svg>
