<svg width="40" height="40" viewBox="0 0 40 40" fill="none" xmlns="http://www.w3.org/2000/svg">
<g clip-path="url(#clip0_15_667)">
<path d="M30.968 0H9.03203C4.04378 0 0 4.0625 0 9.07386V30.9261C0 35.9375 4.04378 40 9.03203 40H30.968C35.9562 40 40 35.9375 40 30.9261V9.07386C40 4.0625 35.9562 0 30.968 0Z" fill="white"/>
<path d="M25.2922 11.6436H28.1141L21.9492 18.7231L29.2016 28.3557H23.5227L19.075 22.514L13.9852 28.3557H11.1617L17.7555 20.7841L10.7985 11.6436H16.6211L20.6414 16.9838L25.2922 11.6436ZM24.3016 26.6589H25.8657L15.7719 13.2517H14.0938L24.3016 26.6589Z" fill="black"/>
</g>
<defs>
<clipPath id="clip0_15_667">
<rect width="40" height="40" fill="white"/>
</clipPath>
</defs>
</svg>
