<svg width="40" height="40" viewBox="0 0 40 40" fill="none" xmlns="http://www.w3.org/2000/svg">
<g clip-path="url(#clip0_15_670)">
<path d="M30.968 0H9.03203C4.04378 0 0 4.0625 0 9.07386V30.9261C0 35.9375 4.04378 40 9.03203 40H30.968C35.9562 40 40 35.9375 40 30.9261V9.07386C40 4.0625 35.9562 0 30.968 0Z" fill="white"/>
<path d="M23.7897 10.5002L23.4781 10.8629C27.2612 12.0405 29.0189 13.7347 29.0189 13.7347C26.7062 12.4479 24.4324 11.8119 22.3193 11.5635C20.7174 11.3846 19.1788 11.4293 17.8253 11.6082C17.6938 11.6082 17.5818 11.633 17.4455 11.6529C16.6665 11.7225 14.7725 12.0156 12.3916 13.0789C11.5687 13.4615 11.077 13.7347 11.077 13.7347C11.077 13.7347 12.9223 11.951 16.9294 10.7735L16.7103 10.5002C16.7103 10.5002 13.6624 10.4306 10.4537 12.8752C10.4537 12.8752 7.25 18.7778 7.25 26.0568C7.25 26.0568 9.11966 29.336 14.0373 29.495C14.0373 29.495 14.8601 28.4765 15.5272 27.6169C12.6983 26.7574 11.632 24.9488 11.632 24.9488C11.632 24.9488 11.856 25.1078 12.2552 25.3314C12.2796 25.3562 12.2991 25.3761 12.3429 25.4009C12.411 25.4457 12.4743 25.4705 12.5425 25.5152C13.0976 25.8332 13.6575 26.0816 14.1687 26.2853C15.0792 26.648 16.1699 27.0107 17.4406 27.2592C19.1107 27.5772 21.068 27.6865 23.2054 27.284C24.2522 27.1052 25.3185 26.7872 26.4335 26.3102C27.2125 26.017 28.0792 25.5848 28.9946 24.9786C28.9946 24.9786 27.8796 26.8319 24.968 27.6666C25.635 28.5262 26.4384 29.5 26.4384 29.5C31.356 29.341 33.25 26.0618 33.25 26.0618C33.25 18.7828 30.0463 12.8801 30.0463 12.8801C26.8376 10.4306 23.7897 10.5002 23.7897 10.5002ZM16.0871 23.9501C14.8406 23.9501 13.8182 22.8173 13.8182 21.441C13.8182 20.0647 14.8212 18.9319 16.0871 18.9319C17.353 18.9319 18.3803 20.0647 18.356 21.441C18.356 22.8222 17.353 23.9501 16.0871 23.9501ZM24.2084 23.9501C22.962 23.9501 21.9395 22.8173 21.9395 21.441C21.9395 20.0647 22.9425 18.9319 24.2084 18.9319C25.4743 18.9319 26.4773 20.0647 26.4773 21.441C26.4773 22.8173 25.4743 23.9501 24.2084 23.9501Z" fill="black"/>
</g>
<defs>
<clipPath id="clip0_15_670">
<rect width="40" height="40" fill="white"/>
</clipPath>
</defs>
</svg>
