<svg width="100" height="115" viewBox="0 0 100 115" fill="none" xmlns="http://www.w3.org/2000/svg">
<path fill-rule="evenodd" clip-rule="evenodd" d="M36.9828 6.95473C40.5053 3.15365 44.9844 0 50.2011 0C55.4178 0 59.8968 3.15365 63.4193 6.95473C66.9637 10.7791 69.7198 15.4493 71.4934 18.8986C73.8444 23.4717 75.8698 28.5649 77.3108 33.3145C78.745 38.0436 79.6236 42.5168 79.6236 45.8278C79.6236 57.8785 67.5439 67.3422 52.8368 68.3537V85.1964C52.8368 86.6747 51.638 87.8751 50.1573 87.8751C48.6766 87.8751 47.4778 86.6733 47.4778 85.1964V68.3468C32.8089 67.3038 20.7786 57.8525 20.7786 45.8278C20.7786 42.5168 21.6571 38.0436 23.0913 33.3145C24.531 28.5649 26.5563 23.4717 28.9074 18.9C30.6809 15.4507 33.4371 10.7804 36.9815 6.95609L36.9828 6.95473ZM40.5532 10.9433C43.5092 7.62816 46.8045 5.356 50.2024 5.356C53.599 5.35737 56.893 7.62953 59.8475 10.9433C62.7665 14.2174 65.1463 18.2772 66.7256 21.3487C69.1779 26.1189 71.0692 31.0779 72.3432 35.4457C73.6255 39.8353 74.2618 43.5447 74.2618 45.8292C74.2618 50.2832 71.8697 54.4333 67.7862 57.576C63.9722 60.512 58.7363 62.5186 52.834 62.984V49.9588L53.7318 49.4414L57.2337 47.4197C57.413 47.317 57.5745 47.1952 57.7195 47.0611L60.811 45.2187C62.0878 44.4768 62.5202 42.8425 61.7826 41.5668C61.0422 40.287 59.4042 39.8436 58.1205 40.5868L58.1137 40.5909L52.834 43.7391V41.961C52.834 41.9227 52.834 41.8844 52.8313 41.8461V34.2768C52.8313 32.7999 51.6339 31.5981 50.1518 31.5981C48.6697 31.5981 47.4723 32.7971 47.4723 34.2768V49.7179L41.1773 46.0947C40.6134 45.769 39.9826 45.6718 39.3886 45.7744C38.6291 45.9031 37.9298 46.3575 37.5138 47.0775C36.7748 48.36 37.2169 49.9971 38.4991 50.7349L47.4723 55.8992V62.9771C41.5946 62.4967 36.3821 60.4874 32.5859 57.5554C28.5187 54.4141 26.1376 50.2736 26.1376 45.8292C26.1376 43.5447 26.7739 39.8367 28.0562 35.4457C29.3316 31.0793 31.2215 26.1189 33.6738 21.3487C35.2531 18.2772 37.6329 14.2188 40.5519 10.9433H40.5532Z" fill="url(#paint0_linear_15_2)"/>
<path d="M95.5925 95.2837H100V114.463H95.5925V95.2837Z" fill="#27A755"/>
<path d="M89.1461 114.463V113.247C88.7239 113.686 88.192 114.032 87.5503 114.286C86.9255 114.522 86.25 114.64 85.5238 114.64C84.595 114.64 83.7254 114.497 82.9148 114.21C82.1042 113.922 81.3949 113.483 80.787 112.892C80.196 112.301 79.7316 111.558 79.3938 110.663C79.073 109.75 78.9294 108.669 78.9632 107.42C78.997 106.187 79.1996 105.114 79.5711 104.202C79.9595 103.273 80.4662 102.513 81.091 101.922C81.6989 101.33 82.3997 100.9 83.1934 100.63C84.004 100.342 84.8399 100.216 85.7012 100.249C86.4273 100.3 87.0859 100.469 87.6769 100.756C88.268 101.043 88.7577 101.39 89.1461 101.795V100.528H93.5283V114.463H89.1461ZM86.0558 110.764C86.7988 110.764 87.4321 110.587 87.9556 110.232C88.496 109.86 88.8421 109.286 88.9941 108.509C88.9941 108.458 89.0026 108.349 89.0195 108.18C89.0364 107.994 89.0448 107.876 89.0448 107.825C89.0448 106.643 88.7662 105.73 88.2089 105.089C87.6516 104.447 86.9677 104.126 86.1571 104.126C85.4647 104.092 84.823 104.354 84.232 104.911C83.6409 105.452 83.3454 106.288 83.3454 107.42C83.3454 108.534 83.5987 109.37 84.1053 109.928C84.6288 110.485 85.279 110.764 86.0558 110.764Z" fill="#27A755"/>
<path d="M62.5747 95.6638H69.7433C72.3101 95.6638 74.269 96.2465 75.62 97.412C76.9878 98.5774 77.6718 100.199 77.6718 102.276C77.6718 103.138 77.5029 103.966 77.1652 104.759C76.8274 105.536 76.3461 106.22 75.7213 106.812C75.0796 107.403 74.2943 107.876 73.3656 108.23C72.4537 108.568 71.4151 108.737 70.2499 108.737H67.0582V114.463H62.5747V95.6638ZM67.0582 104.709H70.4525C71.4151 104.709 72.1244 104.447 72.5803 103.923C73.0531 103.383 73.2896 102.8 73.2896 102.175C73.2896 101.5 73.0447 100.925 72.555 100.452C72.0821 99.9625 71.3982 99.7176 70.5032 99.7176H67.0582V104.709Z" fill="#27A755"/>
<path d="M52.1774 114.666C51.2486 114.666 50.3789 114.531 49.5683 114.26C48.7746 113.99 48.0738 113.559 47.4659 112.968C46.8748 112.394 46.4104 111.659 46.0727 110.764C45.735 109.869 45.5745 108.805 45.5914 107.572C45.6083 106.389 45.7772 105.334 46.098 104.405C46.4358 103.476 46.8917 102.699 47.4659 102.074C48.0569 101.449 48.7409 100.984 49.5177 100.68C50.3114 100.376 51.1726 100.241 52.1014 100.275C52.912 100.309 53.6466 100.478 54.3052 100.782C54.9638 101.069 55.4957 101.415 55.901 101.82V95.6638H60.2579V114.463H55.901V113.222C55.4619 113.678 54.9131 114.032 54.2545 114.286C53.6128 114.539 52.9204 114.666 52.1774 114.666ZM53.064 110.789C53.8914 110.739 54.5416 110.435 55.0144 109.877C55.5041 109.303 55.749 108.619 55.749 107.825C55.749 106.71 55.4535 105.823 54.8624 105.165C54.2883 104.489 53.5706 104.151 52.7093 104.151C52.3716 104.151 52.0338 104.219 51.6961 104.354C51.3752 104.489 51.0797 104.683 50.8095 104.937C50.5393 105.207 50.3198 105.553 50.1509 105.976C49.9989 106.381 49.923 106.871 49.923 107.445C49.923 108.087 50.0074 108.627 50.1763 109.066C50.362 109.506 50.5984 109.86 50.8855 110.131C51.1895 110.401 51.5272 110.587 51.8987 110.688C52.2703 110.789 52.6587 110.823 53.064 110.789Z" fill="#27A755"/>
<path d="M39.4644 95.2837H43.8719V114.463H39.4644V95.2837Z" fill="#27A755"/>
<path d="M33.0327 100.528H37.4149V114.463H33.0327V100.528ZM37.4149 99.0588H33.0327V95.6638H37.4149V99.0588Z" fill="#27A755"/>
<path d="M30.9784 100.528V114.463H26.5456V113.652C26.2247 113.923 25.8025 114.168 25.279 114.387C24.7555 114.607 24.1898 114.742 23.5819 114.793H23.2526C21.547 114.793 20.3058 114.294 19.529 113.298C18.7522 112.301 18.3638 110.967 18.3638 109.295V100.528H22.7966V107.394C22.7966 108.678 22.9655 109.523 23.3032 109.928C23.641 110.333 24.0632 110.528 24.5698 110.511C25.0088 110.511 25.3804 110.443 25.6843 110.308C25.9883 110.173 26.2754 109.953 26.5456 109.649V100.528H30.9784Z" fill="#27A755"/>
<path d="M10.8922 110.13C11.213 109.911 11.4748 109.556 11.6774 109.066C11.8801 108.577 11.9814 108.078 11.9814 107.572H8.1058V103.695H16.6929V105.545C16.6591 106.119 16.6253 106.668 16.5916 107.191C16.5578 107.715 16.4987 108.222 16.4143 108.712C16.3467 109.201 16.2285 109.674 16.0596 110.13C15.9076 110.587 15.6881 111.043 15.401 111.499C14.7931 112.529 14.0585 113.297 13.1973 113.804C12.336 114.311 11.4663 114.649 10.5882 114.818C10.0985 114.919 9.56654 114.978 8.99238 114.995C8.41821 115.012 7.84405 114.986 7.26989 114.919C6.67884 114.834 6.11313 114.716 5.57274 114.564C5.03235 114.395 4.55107 114.184 4.12889 113.931C2.74415 113.069 1.7056 111.912 1.01323 110.46C0.337742 109.007 0 107.217 0 105.089C0 102.994 0.37996 101.221 1.13988 99.7681C1.8998 98.2986 2.97213 97.1332 4.35687 96.2717C4.76216 96.0184 5.22655 95.8157 5.75005 95.6637C6.27355 95.4948 6.81394 95.3765 7.37122 95.309C7.92849 95.2414 8.48576 95.2161 9.04304 95.233C9.60031 95.233 10.1238 95.2836 10.6135 95.385C11.4241 95.5539 12.2263 95.8833 13.0199 96.3731C13.8305 96.8629 14.6749 97.5808 15.553 98.5266L12.8173 101.364C11.9729 100.452 11.1117 99.861 10.2336 99.5907C9.35545 99.3205 8.48576 99.3289 7.62452 99.6161C6.56063 99.9708 5.7585 100.613 5.21811 101.542C4.67772 102.471 4.40753 103.653 4.40753 105.089C4.40753 106.558 4.68617 107.791 5.24344 108.788C5.80072 109.767 6.5353 110.384 7.44721 110.637C7.95382 110.789 8.52798 110.831 9.16969 110.764C9.82829 110.696 10.4024 110.485 10.8922 110.13Z" fill="#27A755"/>
<defs>
<linearGradient id="paint0_linear_15_2" x1="53.927" y1="97.9826" x2="53.927" y2="-7.21279" gradientUnits="userSpaceOnUse">
<stop stop-color="#00752A"/>
<stop offset="0.45" stop-color="#00C346"/>
<stop offset="0.9" stop-color="#ABE85D"/>
</linearGradient>
</defs>
</svg>
